<svg width="24" height="24" viewBox="0 0 24 24" fill="none" xmlns="http://www.w3.org/2000/svg">
<path d="M8.49975 10.7505H2.25C1.0095 10.7505 0 9.741 0 8.5005V2.25C0 1.0095 1.0095 0 2.25 0H8.49975C9.74025 0 10.7498 1.0095 10.7498 2.25V8.5005C10.7498 9.741 9.741 10.7505 8.49975 10.7505ZM21.75 10.7505H15.4995C14.259 10.7505 13.2495 9.741 13.2495 8.5005V2.25C13.2495 1.0095 14.259 0 15.4995 0H21.75C22.9905 0 24 1.0095 24 2.25V8.5005C24 9.741 22.9905 10.7505 21.75 10.7505ZM8.49975 23.9535H2.25C1.0095 23.9535 0 22.944 0 21.7035V15.453C0 14.2125 1.0095 13.203 2.25 13.203H8.49975C9.74025 13.203 10.7498 14.2125 10.7498 15.453V21.7035C10.7498 22.944 9.741 23.9535 8.49975 23.9535ZM21.75 23.9535H15.4995C14.259 23.9535 13.2495 22.944 13.2495 21.7035V15.453C13.2495 14.2125 14.259 13.203 15.4995 13.203H21.75C22.9905 13.203 24 14.2125 24 15.453V21.7035C24 22.944 22.9905 23.9535 21.75 23.9535Z" fill="#FFFF00"/>
</svg>
