<svg width="16" height="22" viewBox="0 0 16 22" fill="none" xmlns="http://www.w3.org/2000/svg">
<path d="M14 2.18011V3.18011C13.9713 3.95023 13.6403 4.67804 13.0788 5.20587C12.5173 5.7337 11.7704 6.01905 11 6.00011H5C4.2279 6.019 3.47957 5.73228 2.91777 5.20231C2.35596 4.67235 2.02613 3.94199 2 3.17011V2.17011C1.41484 2.37699 0.908257 2.76027 0.550056 3.26713C0.191856 3.77398 -0.00032496 4.37946 4.12473e-07 5.00011V19.0001C4.12473e-07 19.7958 0.316071 20.5588 0.87868 21.1214C1.44129 21.684 2.20435 22.0001 3 22.0001H13C13.7956 22.0001 14.5587 21.684 15.1213 21.1214C15.6839 20.5588 16 19.7958 16 19.0001V5.00011C15.9983 4.38116 15.8051 3.77791 15.4471 3.27304C15.089 2.76818 14.5835 2.38642 14 2.18011ZM11 19.0001H5C4.73478 19.0001 4.48043 18.8948 4.29289 18.7072C4.10536 18.5197 4 18.2653 4 18.0001C4 17.7349 4.10536 17.4805 4.29289 17.293C4.48043 17.1055 4.73478 17.0001 5 17.0001H11C11.2652 17.0001 11.5196 17.1055 11.7071 17.293C11.8946 17.4805 12 17.7349 12 18.0001C12 18.2653 11.8946 18.5197 11.7071 18.7072C11.5196 18.8948 11.2652 19.0001 11 19.0001ZM11 15.0001H5C4.73478 15.0001 4.48043 14.8947 4.29289 14.7072C4.10536 14.5197 4 14.2653 4 14.0001C4 13.7349 4.10536 13.4805 4.29289 13.293C4.48043 13.1055 4.73478 13.0001 5 13.0001H11C11.2652 13.0001 11.5196 13.1055 11.7071 13.293C11.8946 13.4805 12 13.7349 12 14.0001C12 14.2653 11.8946 14.5197 11.7071 14.7072C11.5196 14.8947 11.2652 15.0001 11 15.0001ZM11 11.0001H5C4.73478 11.0001 4.48043 10.8947 4.29289 10.7072C4.10536 10.5197 4 10.2653 4 10.0001C4 9.73489 4.10536 9.48054 4.29289 9.293C4.48043 9.10546 4.73478 9.00011 5 9.00011H11C11.2652 9.00011 11.5196 9.10546 11.7071 9.293C11.8946 9.48054 12 9.73489 12 10.0001C12 10.2653 11.8946 10.5197 11.7071 10.7072C11.5196 10.8947 11.2652 11.0001 11 11.0001ZM12 0.830107V3.17011C11.9747 3.41163 11.8559 3.63366 11.669 3.78876C11.4822 3.94386 11.2421 4.01971 11 4.00011H5C4.75795 4.01971 4.51783 3.94386 4.33097 3.78876C4.14411 3.63366 4.02532 3.41163 4 3.17011V0.830107C4.02532 0.588587 4.14411 0.366551 4.33097 0.211455C4.51783 0.0563582 4.75795 -0.019495 5 0.000107119H11C11.2421 -0.019495 11.4822 0.0563582 11.669 0.211455C11.8559 0.366551 11.9747 0.588587 12 0.830107Z" fill="#FFFF00"/>
</svg>
